<mxfile host="65bd71144e">
    <diagram id="Z7gV1ETzdnFMeSPZiWBT" name="Page-1">
        <mxGraphModel dx="2434" dy="1227" grid="1" gridSize="10" guides="1" tooltips="1" connect="1" arrows="1" fold="1" page="1" pageScale="1" pageWidth="827" pageHeight="1169" math="0" shadow="0">
            <root>
                <mxCell id="0"/>
                <mxCell id="1" parent="0"/>
                <mxCell id="26" value="" style="rounded=1;whiteSpace=wrap;html=1;strokeColor=#23445d;fontSize=70;fillColor=#bac8d3;" vertex="1" parent="1">
                    <mxGeometry x="40" y="40" width="720" height="520" as="geometry"/>
                </mxCell>
                <mxCell id="27" value="" style="rounded=1;whiteSpace=wrap;html=1;strokeColor=#23445d;fontSize=70;fillColor=#bac8d3;" vertex="1" parent="1">
                    <mxGeometry x="40" y="600" width="720" height="520" as="geometry"/>
                </mxCell>
                <mxCell id="28" value="" style="rounded=1;whiteSpace=wrap;html=1;strokeColor=#23445d;fontSize=70;fillColor=#bac8d3;" vertex="1" parent="1">
                    <mxGeometry x="800" y="600" width="720" height="520" as="geometry"/>
                </mxCell>
                <mxCell id="29" value="" style="rounded=1;whiteSpace=wrap;html=1;strokeColor=#23445d;fontSize=70;fillColor=#bac8d3;" vertex="1" parent="1">
                    <mxGeometry x="800" y="40" width="720" height="520" as="geometry"/>
                </mxCell>
                <mxCell id="30" value="" style="rounded=1;whiteSpace=wrap;html=1;strokeColor=#23445d;fontSize=70;fillColor=#bac8d3;" vertex="1" parent="1">
                    <mxGeometry x="1560" y="600" width="720" height="520" as="geometry"/>
                </mxCell>
                <mxCell id="31" value="" style="rounded=1;whiteSpace=wrap;html=1;strokeColor=#23445d;fontSize=70;fillColor=#bac8d3;" vertex="1" parent="1">
                    <mxGeometry x="1560" y="40" width="720" height="520" as="geometry"/>
                </mxCell>
                <mxCell id="32" value="" style="group" vertex="1" connectable="0" parent="1">
                    <mxGeometry x="80" y="80" width="160" height="160" as="geometry"/>
                </mxCell>
                <mxCell id="9" value="" style="ellipse;whiteSpace=wrap;html=1;aspect=fixed;strokeColor=default;fontSize=80;fontColor=#000000;fillColor=default;" vertex="1" parent="32">
                    <mxGeometry width="160" height="160" as="geometry"/>
                </mxCell>
                <mxCell id="17" value="" style="shape=cross;whiteSpace=wrap;html=1;fillColor=#FFFFFF;" vertex="1" parent="32">
                    <mxGeometry x="40" y="40" width="80" height="80" as="geometry"/>
                </mxCell>
                <mxCell id="33" value="" style="group" vertex="1" connectable="0" parent="1">
                    <mxGeometry x="840" y="80" width="160" height="160" as="geometry"/>
                </mxCell>
                <mxCell id="16" value="" style="ellipse;whiteSpace=wrap;html=1;aspect=fixed;strokeColor=default;fontSize=80;fontColor=#000000;fillColor=default;" vertex="1" parent="33">
                    <mxGeometry width="160" height="160" as="geometry"/>
                </mxCell>
                <mxCell id="19" value="" style="rounded=0;whiteSpace=wrap;html=1;fillColor=#FFFFFF;" vertex="1" parent="33">
                    <mxGeometry x="40" y="70" width="80" height="20" as="geometry"/>
                </mxCell>
                <mxCell id="34" value="" style="group" vertex="1" connectable="0" parent="1">
                    <mxGeometry x="1600" y="80" width="160" height="160" as="geometry"/>
                </mxCell>
                <mxCell id="15" value="" style="ellipse;whiteSpace=wrap;html=1;aspect=fixed;strokeColor=default;fontSize=80;fontColor=#000000;fillColor=default;" vertex="1" parent="34">
                    <mxGeometry width="160" height="160" as="geometry"/>
                </mxCell>
                <mxCell id="20" value="&lt;b&gt;&lt;font color=&quot;#ffffff&quot; style=&quot;font-size: 90px;&quot;&gt;?&lt;/font&gt;&lt;/b&gt;" style="text;html=1;strokeColor=none;fillColor=none;align=center;verticalAlign=middle;whiteSpace=wrap;rounded=0;" vertex="1" parent="34">
                    <mxGeometry x="50" y="40" width="60" height="80" as="geometry"/>
                </mxCell>
                <mxCell id="35" value="" style="group" vertex="1" connectable="0" parent="1">
                    <mxGeometry x="1600" y="640" width="160" height="160" as="geometry"/>
                </mxCell>
                <mxCell id="10" value="" style="ellipse;whiteSpace=wrap;html=1;aspect=fixed;strokeColor=default;fontSize=80;fontColor=#000000;fillColor=default;" vertex="1" parent="35">
                    <mxGeometry width="160" height="160" as="geometry"/>
                </mxCell>
                <mxCell id="24" value="&lt;b style=&quot;font-size: 70px;&quot;&gt;&lt;font color=&quot;#ffffff&quot; style=&quot;font-size: 70px;&quot;&gt;I&lt;/font&gt;&lt;font color=&quot;#ffffff&quot; style=&quot;font-size: 70px;&quot;&gt;dea&lt;/font&gt;&lt;/b&gt;" style="text;html=1;strokeColor=none;fillColor=none;align=center;verticalAlign=middle;whiteSpace=wrap;rounded=0;" vertex="1" parent="35">
                    <mxGeometry x="50" y="40" width="60" height="80" as="geometry"/>
                </mxCell>
                <mxCell id="36" value="" style="group" vertex="1" connectable="0" parent="1">
                    <mxGeometry x="840" y="640" width="160" height="160" as="geometry"/>
                </mxCell>
                <mxCell id="14" value="" style="ellipse;whiteSpace=wrap;html=1;aspect=fixed;strokeColor=default;fontSize=80;fontColor=#000000;fillColor=default;" vertex="1" parent="36">
                    <mxGeometry width="160" height="160" as="geometry"/>
                </mxCell>
                <mxCell id="22" value="" style="verticalLabelPosition=bottom;verticalAlign=top;html=1;shape=mxgraph.basic.heart;rotation=-180;fillColor=#FFFFFF;" vertex="1" parent="36">
                    <mxGeometry x="30" y="30" width="100" height="100" as="geometry"/>
                </mxCell>
                <mxCell id="37" value="" style="group" vertex="1" connectable="0" parent="1">
                    <mxGeometry x="80" y="640" width="160" height="160" as="geometry"/>
                </mxCell>
                <mxCell id="8" value="" style="ellipse;whiteSpace=wrap;html=1;aspect=fixed;strokeColor=default;fontSize=80;fontColor=#000000;fillColor=default;" vertex="1" parent="37">
                    <mxGeometry width="160" height="160" as="geometry"/>
                </mxCell>
                <mxCell id="21" value="" style="verticalLabelPosition=bottom;verticalAlign=top;html=1;shape=mxgraph.basic.heart;fillColor=#FFFFFF;" vertex="1" parent="37">
                    <mxGeometry x="30" y="40" width="100" height="100" as="geometry"/>
                </mxCell>
                <mxCell id="38" value="" style="rounded=1;whiteSpace=wrap;html=1;strokeColor=#82b366;fontSize=70;fillColor=#d5e8d4;" vertex="1" parent="1">
                    <mxGeometry x="2320" y="290" width="720" height="520" as="geometry"/>
                </mxCell>
                <mxCell id="39" value="" style="group" vertex="1" connectable="0" parent="1">
                    <mxGeometry x="2360" y="330" width="160" height="160" as="geometry"/>
                </mxCell>
                <mxCell id="40" value="" style="ellipse;whiteSpace=wrap;html=1;aspect=fixed;strokeColor=default;fontSize=80;fontColor=#000000;fillColor=default;" vertex="1" parent="39">
                    <mxGeometry width="160" height="160" as="geometry"/>
                </mxCell>
                <mxCell id="42" value="" style="verticalLabelPosition=bottom;verticalAlign=top;html=1;shape=mxgraph.basic.flash;strokeColor=default;fontSize=70;fontColor=#FFFFFF;fillColor=#FFFFFF;" vertex="1" parent="39">
                    <mxGeometry x="50" y="30" width="60" height="100" as="geometry"/>
                </mxCell>
            </root>
        </mxGraphModel>
    </diagram>
</mxfile>